<svg width="189" height="60" viewBox="0 0 189 60" fill="none" xmlns="http://www.w3.org/2000/svg">
<path d="M21.0938 33.9062C20.1562 34.4792 19.2188 35.026 18.2812 35.5469C17.5 35.9635 16.6667 36.4062 15.7812 36.875C14.9479 37.3438 14.2448 37.7083 13.6719 37.9688C13.5677 43.3854 13.4375 47.5521 13.2812 50.4688C13.1771 53.3854 13.099 55.5208 13.0469 56.875C12.9427 58.4896 12.8385 59.401 12.7344 59.6094C12.6302 59.6094 12.3177 59.401 11.7969 58.9844C11.276 58.5156 10.7031 57.9688 10.0781 57.3438C9.50521 56.7188 8.95833 56.0938 8.4375 55.4688C7.96875 54.8438 7.68229 54.375 7.57812 54.0625C7.52604 53.3854 7.39583 51.4323 7.1875 48.2031C7.08333 46.7969 6.97917 45.0521 6.875 42.9688C6.77083 40.8854 6.64062 38.3594 6.48438 35.3906C6.32812 32.4219 6.14583 28.9323 5.9375 24.9219C5.78125 20.9115 5.59896 16.3021 5.39062 11.0938C4.45312 11.0417 3.67188 11.0156 3.04688 11.0156C2.47396 11.0156 2.03125 11.0417 1.71875 11.0938C1.40625 11.0938 1.17188 11.0938 1.01562 11.0938C0.859375 11.0417 0.729167 10.9115 0.625 10.7031C0.416667 10.2865 0.260417 9.58333 0.15625 8.59375C0.0520833 7.55208 0 6.5625 0 5.625C0 4.58333 0.130208 3.54167 0.390625 2.5C0.703125 1.45833 1.06771 0.807292 1.48438 0.546875C1.64062 0.442708 2.03125 0.416667 2.65625 0.46875C3.33333 0.520833 4.11458 0.625 5 0.78125C5.88542 0.9375 6.84896 1.11979 7.89062 1.32812C8.93229 1.53646 9.92188 1.74479 10.8594 1.95312C11.7969 2.16146 12.6042 2.36979 13.2812 2.57812C14.0104 2.73438 14.5312 2.83854 14.8438 2.89062C15.3646 2.99479 16.3281 3.30729 17.7344 3.82812C19.1406 4.29688 20.625 4.89583 22.1875 5.625C23.8021 6.30208 25.3125 7.05729 26.7188 7.89062C28.1771 8.67188 29.2448 9.45312 29.9219 10.2344C30.1823 10.5469 30.4167 11.4323 30.625 12.8906C30.8854 14.349 31.0677 15.9375 31.1719 17.6562C31.3281 19.3229 31.3802 20.9375 31.3281 22.5C31.3281 24.0104 31.1979 25 30.9375 25.4688C30.7292 25.7812 30.3385 26.276 29.7656 26.9531C29.1927 27.6302 28.4635 28.3854 27.5781 29.2188C26.7448 30 25.7812 30.8073 24.6875 31.6406C23.5938 32.474 22.3958 33.2292 21.0938 33.9062ZM13.9062 32.2656C14.375 32.0052 14.9479 31.5104 15.625 30.7812C16.3542 30 17.1094 29.1406 17.8906 28.2031C18.6719 27.2135 19.4531 26.1979 20.2344 25.1562C21.0156 24.0625 21.7188 23.0469 22.3438 22.1094C23.0208 21.1719 23.5417 20.3646 23.9062 19.6875C24.3229 18.9583 24.5312 18.4896 24.5312 18.2812C24.5312 17.9688 24.2969 17.5781 23.8281 17.1094C23.3594 16.5885 22.6823 16.0677 21.7969 15.5469C20.9635 15.026 19.9219 14.5312 18.6719 14.0625C17.474 13.5417 16.1458 13.099 14.6875 12.7344L13.9062 32.2656ZM42.0312 26.4062C42.1354 26.6667 42.1875 27.5 42.1875 28.9062C42.2396 30.2604 42.2396 31.9271 42.1875 33.9062C42.1875 35.8333 42.1354 37.9167 42.0312 40.1562C41.9271 42.3438 41.7969 44.4271 41.6406 46.4062C41.5365 48.3333 41.4062 50 41.25 51.4062C41.0938 52.7604 40.9375 53.5677 40.7812 53.8281C40.3125 54.5573 39.6094 55.026 38.6719 55.2344C37.7344 55.3906 37.0573 55.4167 36.6406 55.3125C36.4323 55.3125 36.1979 54.7135 35.9375 53.5156C35.7292 52.3177 35.5208 50.8073 35.3125 48.9844C35.1042 47.1615 34.9219 45.1823 34.7656 43.0469C34.6094 40.9115 34.4792 38.8802 34.375 36.9531C34.2708 34.974 34.2188 33.2552 34.2188 31.7969C34.2188 30.3385 34.2708 29.401 34.375 28.9844C34.5312 28.3073 34.974 27.7083 35.7031 27.1875C36.4844 26.6667 37.2917 26.276 38.125 26.0156C39.0104 25.7552 39.8177 25.651 40.5469 25.7031C41.3281 25.7031 41.8229 25.9375 42.0312 26.4062ZM42.4219 13.75C42.6302 14.1667 42.7083 14.7396 42.6562 15.4688C42.6562 16.1979 42.5781 16.9531 42.4219 17.7344C42.2656 18.5156 42.0573 19.2708 41.7969 20C41.5365 20.7292 41.276 21.3021 41.0156 21.7188C40.4948 22.4479 39.7135 22.9167 38.6719 23.125C37.6823 23.2812 36.9531 23.3073 36.4844 23.2031C36.1198 23.151 35.7552 22.9167 35.3906 22.5C35.026 22.0312 34.7135 21.4844 34.4531 20.8594C34.1927 20.1823 34.0104 19.4531 33.9062 18.6719C33.8021 17.8906 33.8281 17.1615 33.9844 16.4844C34.1406 15.8073 34.6354 15.2083 35.4688 14.6875C36.3021 14.1146 37.1875 13.6979 38.125 13.4375C39.0625 13.125 39.9479 12.9948 40.7812 13.0469C41.6146 13.0469 42.1615 13.2812 42.4219 13.75ZM65.0781 12.2656C65.0781 12.474 64.7917 13.3073 64.2188 14.7656C63.6458 16.224 62.9167 18.0208 62.0312 20.1562C61.1458 22.2917 60.1562 24.6354 59.0625 27.1875C57.9688 29.6875 56.9271 32.0833 55.9375 34.375C55 36.6667 54.1667 38.6719 53.4375 40.3906C52.7083 42.1094 52.2396 43.2552 52.0312 43.8281C53.2292 43.6719 54.4271 43.5417 55.625 43.4375C56.8229 43.2812 57.8906 43.1771 58.8281 43.125C59.8177 43.0208 60.625 42.9688 61.25 42.9688C61.875 42.9167 62.2135 42.9167 62.2656 42.9688C62.4219 43.1771 62.4219 43.6198 62.2656 44.2969C62.1094 44.9219 61.875 45.625 61.5625 46.4062C61.25 47.1875 60.8854 47.9427 60.4688 48.6719C60.1042 49.401 59.7917 49.9219 59.5312 50.2344C59.4271 50.3906 58.8542 50.5208 57.8125 50.625C56.8229 50.7292 55.7031 50.8073 54.4531 50.8594C53.2031 50.9115 52.0052 50.9375 50.8594 50.9375C49.7135 50.9375 48.9844 50.9115 48.6719 50.8594C48.099 50.7552 47.5521 50.2083 47.0312 49.2188C46.5625 48.2292 46.276 47.2917 46.1719 46.4062C46.1198 45.9896 46.25 45.1562 46.5625 43.9062C46.9271 42.6562 47.3958 41.1979 47.9688 39.5312C48.5417 37.8125 49.1927 35.9896 49.9219 34.0625C50.7031 32.0833 51.4323 30.1562 52.1094 28.2812C52.8385 26.4062 53.4896 24.6875 54.0625 23.125C54.6354 21.5104 55.0781 20.2083 55.3906 19.2188C53.2552 19.375 51.6146 19.5052 50.4688 19.6094C49.3229 19.7135 48.4635 19.7917 47.8906 19.8438C47.3698 19.8958 47.0312 19.9219 46.875 19.9219C46.7188 19.8698 46.6146 19.7917 46.5625 19.6875C46.3542 19.375 46.1458 18.8021 45.9375 17.9688C45.7812 17.1354 45.651 16.25 45.5469 15.3125C45.4948 14.375 45.4688 13.5156 45.4688 12.7344C45.5208 11.901 45.651 11.3542 45.8594 11.0938C45.9635 10.9375 46.5104 10.8073 47.5 10.7031C48.4896 10.599 49.6875 10.5208 51.0938 10.4688C52.5521 10.4167 54.0885 10.4167 55.7031 10.4688C57.3177 10.4688 58.8021 10.5469 60.1562 10.7031C61.5625 10.8073 62.7083 10.9896 63.5938 11.25C64.5312 11.5104 65.026 11.849 65.0781 12.2656ZM82.6562 12.2656C82.6562 12.474 82.3698 13.3073 81.7969 14.7656C81.224 16.224 80.4948 18.0208 79.6094 20.1562C78.724 22.2917 77.7344 24.6354 76.6406 27.1875C75.5469 29.6875 74.5052 32.0833 73.5156 34.375C72.5781 36.6667 71.7448 38.6719 71.0156 40.3906C70.2865 42.1094 69.8177 43.2552 69.6094 43.8281C70.8073 43.6719 72.0052 43.5417 73.2031 43.4375C74.401 43.2812 75.4688 43.1771 76.4062 43.125C77.3958 43.0208 78.2031 42.9688 78.8281 42.9688C79.4531 42.9167 79.7917 42.9167 79.8438 42.9688C80 43.1771 80 43.6198 79.8438 44.2969C79.6875 44.9219 79.4531 45.625 79.1406 46.4062C78.8281 47.1875 78.4635 47.9427 78.0469 48.6719C77.6823 49.401 77.3698 49.9219 77.1094 50.2344C77.0052 50.3906 76.4323 50.5208 75.3906 50.625C74.401 50.7292 73.2812 50.8073 72.0312 50.8594C70.7812 50.9115 69.5833 50.9375 68.4375 50.9375C67.2917 50.9375 66.5625 50.9115 66.25 50.8594C65.6771 50.7552 65.1302 50.2083 64.6094 49.2188C64.1406 48.2292 63.8542 47.2917 63.75 46.4062C63.6979 45.9896 63.8281 45.1562 64.1406 43.9062C64.5052 42.6562 64.974 41.1979 65.5469 39.5312C66.1198 37.8125 66.7708 35.9896 67.5 34.0625C68.2812 32.0833 69.0104 30.1562 69.6875 28.2812C70.4167 26.4062 71.0677 24.6875 71.6406 23.125C72.2135 21.5104 72.6562 20.2083 72.9688 19.2188C70.8333 19.375 69.1927 19.5052 68.0469 19.6094C66.901 19.7135 66.0417 19.7917 65.4688 19.8438C64.9479 19.8958 64.6094 19.9219 64.4531 19.9219C64.2969 19.8698 64.1927 19.7917 64.1406 19.6875C63.9323 19.375 63.724 18.8021 63.5156 17.9688C63.3594 17.1354 63.2292 16.25 63.125 15.3125C63.0729 14.375 63.0469 13.5156 63.0469 12.7344C63.099 11.901 63.2292 11.3542 63.4375 11.0938C63.5417 10.9375 64.0885 10.8073 65.0781 10.7031C66.0677 10.599 67.2656 10.5208 68.6719 10.4688C70.1302 10.4167 71.6667 10.4167 73.2812 10.4688C74.8958 10.4688 76.3802 10.5469 77.7344 10.7031C79.1406 10.8073 80.2865 10.9896 81.1719 11.25C82.1094 11.5104 82.6042 11.849 82.6562 12.2656ZM103.672 18.9062C103.984 19.2708 104.271 19.6615 104.531 20.0781C104.792 20.4427 105.026 20.9635 105.234 21.6406C105.443 22.2656 105.599 23.099 105.703 24.1406C105.859 25.1823 105.938 26.5365 105.938 28.2031C105.938 30.8594 105.859 33.5417 105.703 36.25C105.599 38.9062 105.495 41.25 105.391 43.2812C105.339 45.1042 105.286 46.7969 105.234 48.3594C105.182 49.9219 105.13 51.3021 105.078 52.5C105.026 53.6458 104.948 54.5573 104.844 55.2344C104.792 55.9115 104.74 56.276 104.688 56.3281C104.479 56.4844 104.141 56.4323 103.672 56.1719C103.255 55.8594 102.786 55.4688 102.266 55C101.797 54.5312 101.354 54.0365 100.938 53.5156C100.521 52.9948 100.26 52.5781 100.156 52.2656C100.156 52.0052 100.078 51.25 99.9219 50C98.6719 50.7292 97.2917 51.25 95.7812 51.5625C94.2708 51.8229 92.7604 51.9271 91.25 51.875C89.7917 51.7708 88.4375 51.4844 87.1875 51.0156C85.9375 50.5469 85 49.9219 84.375 49.1406C84.1146 48.8281 83.8802 48.3594 83.6719 47.7344C83.5156 47.1094 83.3594 46.4062 83.2031 45.625C83.099 44.7917 82.9948 43.9323 82.8906 43.0469C82.7865 42.1094 82.7083 41.25 82.6562 40.4688C82.5521 38.4375 82.8125 36.6927 83.4375 35.2344C84.0625 33.724 85.2083 32.6042 86.875 31.875C87.6042 31.5625 88.5677 31.4062 89.7656 31.4062C91.0156 31.3542 92.2396 31.4062 93.4375 31.5625C94.6875 31.6667 95.8073 31.8229 96.7969 32.0312C97.7865 32.1875 98.4115 32.3177 98.6719 32.4219C98.4635 29.7656 98.3073 27.474 98.2031 25.5469C98.099 23.5677 97.8906 22.2917 97.5781 21.7188C97.3177 21.3542 97.0052 20.9896 96.6406 20.625C96.3281 20.3646 95.9115 20.0781 95.3906 19.7656C94.8698 19.4531 94.2448 19.2188 93.5156 19.0625C92.9427 18.9583 92.4219 19.1927 91.9531 19.7656C91.5365 20.2865 91.1458 21.224 90.7812 22.5781C90.4688 23.8802 90.2865 25.8854 90.2344 28.5938C88.4115 28.6458 87.0052 28.6458 86.0156 28.5938C85.0781 28.4896 84.375 28.3854 83.9062 28.2812C83.3333 28.1771 82.9948 28.0469 82.8906 27.8906C82.7865 27.6823 82.8385 26.9271 83.0469 25.625C83.2552 24.2708 83.5417 22.8125 83.9062 21.25C84.3229 19.6875 84.7917 18.2031 85.3125 16.7969C85.8854 15.3906 86.4844 14.5052 87.1094 14.1406C88.3594 13.4115 89.8438 13.151 91.5625 13.3594C93.3333 13.5677 95.0521 14.0104 96.7188 14.6875C98.3854 15.3646 99.8698 16.1198 101.172 16.9531C102.474 17.7865 103.307 18.4375 103.672 18.9062ZM98.8281 41.7188C98.8281 41.4583 98.8542 41.1198 98.9062 40.7031C98.9583 40.2344 98.9844 39.7656 98.9844 39.2969C98.9844 38.8281 98.9583 38.3854 98.9062 37.9688C98.9062 37.5521 98.8542 37.2396 98.75 37.0312C98.5938 36.7188 98.125 36.4583 97.3438 36.25C96.6146 36.0417 95.7812 35.9115 94.8438 35.8594C93.9062 35.7552 93.0208 35.7292 92.1875 35.7812C91.3542 35.7812 90.7812 35.8854 90.4688 36.0938C90.0521 36.3542 89.7396 36.7188 89.5312 37.1875C89.375 37.6562 89.2708 38.3854 89.2188 39.375C89.2188 39.8438 89.2448 40.3385 89.2969 40.8594C89.349 41.3802 89.401 41.901 89.4531 42.4219C89.5573 42.8906 89.6615 43.3073 89.7656 43.6719C89.9219 44.0365 90.0781 44.2708 90.2344 44.375C90.599 44.6354 91.224 44.8698 92.1094 45.0781C93.0469 45.2344 93.9844 45.2865 94.9219 45.2344C95.8594 45.1302 96.7188 44.8177 97.5 44.2969C98.2812 43.776 98.724 42.9167 98.8281 41.7188ZM127.734 29.375C128.932 30 130.13 30.6771 131.328 31.4062C132.578 32.1354 133.724 32.8385 134.766 33.5156C135.807 34.1406 136.667 34.7396 137.344 35.3125C138.073 35.8333 138.542 36.25 138.75 36.5625C139.01 36.9792 139.141 37.6302 139.141 38.5156C139.141 39.349 139.062 40.2865 138.906 41.3281C138.802 42.3177 138.62 43.3073 138.359 44.2969C138.099 45.2344 137.812 45.9896 137.5 46.5625C137.135 47.2917 136.302 48.2292 135 49.375C133.75 50.5208 132.344 51.6667 130.781 52.8125C129.219 53.9583 127.682 54.974 126.172 55.8594C124.714 56.7448 123.594 57.2917 122.812 57.5C122.24 57.6562 121.38 57.8125 120.234 57.9688C119.141 58.125 117.995 58.2552 116.797 58.3594C115.599 58.4635 114.505 58.5417 113.516 58.5938C112.578 58.5938 112.005 58.5417 111.797 58.4375C111.38 58.1771 111.016 57.7865 110.703 57.2656C110.443 56.7448 110.312 56.0677 110.312 55.2344C110.417 53.4115 110.625 52.1615 110.938 51.4844C111.042 51.3281 111.172 51.25 111.328 51.25C111.484 51.1979 111.745 51.1719 112.109 51.1719C112.474 51.1719 112.943 51.1719 113.516 51.1719C114.089 51.1719 114.844 51.1458 115.781 51.0938C115.521 48.4375 115.286 45.9115 115.078 43.5156C114.87 41.1198 114.688 39.0104 114.531 37.1875C114.323 35.0521 114.167 33.0469 114.062 31.1719C113.958 29.349 113.802 27.3177 113.594 25.0781C113.438 23.151 113.255 20.9115 113.047 18.3594C112.839 15.8073 112.604 13.0469 112.344 10.0781C111.875 10.0781 111.328 10.0781 110.703 10.0781C110.078 10.0781 109.453 10.0781 108.828 10.0781C108.255 10.026 107.76 9.97396 107.344 9.92188C106.875 9.81771 106.589 9.6875 106.484 9.53125C106.276 9.21875 106.12 8.64583 106.016 7.8125C105.911 6.92708 105.859 6.06771 105.859 5.23438C105.859 4.34896 106.016 3.48958 106.328 2.65625C106.641 1.77083 107.005 1.19792 107.422 0.9375C107.526 0.885417 107.943 0.885417 108.672 0.9375C109.401 0.9375 110.286 1.01562 111.328 1.17188C112.37 1.27604 113.49 1.43229 114.688 1.64062C115.938 1.79688 117.109 1.97917 118.203 2.1875C119.297 2.34375 120.26 2.5 121.094 2.65625C121.927 2.8125 122.5 2.91667 122.812 2.96875C123.333 3.07292 124.323 3.35938 125.781 3.82812C127.292 4.24479 128.906 4.73958 130.625 5.3125C132.344 5.88542 133.984 6.53646 135.547 7.26562C137.109 7.94271 138.203 8.61979 138.828 9.29688C139.089 9.55729 139.323 10.2865 139.531 11.4844C139.792 12.6823 139.974 14.0104 140.078 15.4688C140.234 16.9271 140.286 18.3073 140.234 19.6094C140.234 20.8594 140.104 21.6927 139.844 22.1094C139.635 22.4219 138.906 22.9688 137.656 23.75C136.406 24.5312 135.026 25.3385 133.516 26.1719C131.797 27.1094 129.87 28.1771 127.734 29.375ZM121.797 27.8125C122.474 27.5 123.385 26.875 124.531 25.9375C125.729 25 126.901 23.9583 128.047 22.8125C129.245 21.6146 130.26 20.4167 131.094 19.2188C131.979 17.9688 132.422 16.901 132.422 16.0156C132.422 15.7552 132.135 15.4167 131.562 15C131.042 14.5833 130.312 14.1667 129.375 13.75C128.438 13.3333 127.318 12.9167 126.016 12.5C124.766 12.0312 123.411 11.6146 121.953 11.25L121.797 27.8125ZM121.719 50.2344C123.177 49.9219 124.557 49.4271 125.859 48.75C127.161 48.0729 128.307 47.3438 129.297 46.5625C130.286 45.7292 131.068 44.8958 131.641 44.0625C132.214 43.2292 132.5 42.474 132.5 41.7969C132.5 41.1198 132.057 40.3646 131.172 39.5312C130.339 38.6979 129.323 37.8646 128.125 37.0312C126.979 36.1979 125.807 35.4427 124.609 34.7656C123.411 34.0885 122.474 33.5938 121.797 33.2812L121.719 50.2344ZM160.781 17.4219C161.198 17.6823 161.589 18.2031 161.953 18.9844C162.37 19.7135 162.734 20.5729 163.047 21.5625C163.411 22.5 163.698 23.5156 163.906 24.6094C164.167 25.7031 164.375 26.7188 164.531 27.6562C164.74 28.5938 164.87 29.401 164.922 30.0781C164.974 30.7031 164.974 31.0938 164.922 31.25C164.818 31.4583 164.505 31.6667 163.984 31.875C163.516 32.0833 162.812 32.3177 161.875 32.5781C160.938 32.8385 159.635 33.125 157.969 33.4375C157.865 30.5729 157.656 28.4115 157.344 26.9531C157.031 25.4427 156.693 24.375 156.328 23.75C155.911 23.0208 155.469 22.6562 155 22.6562C154.531 22.8646 154.115 23.125 153.75 23.4375C153.385 23.6979 153.073 23.9844 152.812 24.2969C152.5 24.6615 152.214 25.0521 151.953 25.4688C151.849 25.625 151.745 25.9896 151.641 26.5625C151.536 27.1354 151.432 27.9948 151.328 29.1406C151.328 29.5052 151.302 30.2604 151.25 31.4062C151.25 32.5521 151.224 33.8802 151.172 35.3906C151.172 36.901 151.146 38.4896 151.094 40.1562C151.094 41.8229 151.068 43.3854 151.016 44.8438C151.016 46.25 150.99 47.4479 150.938 48.4375C150.938 49.4271 150.911 50 150.859 50.1562C150.755 50.4167 150.495 50.7812 150.078 51.25C149.661 51.7188 149.193 52.1615 148.672 52.5781C148.151 52.9427 147.656 53.2552 147.188 53.5156C146.719 53.724 146.406 53.6979 146.25 53.4375C146.094 53.2812 145.938 52.6042 145.781 51.4062C145.625 50.2083 145.443 48.75 145.234 47.0312C145.078 45.2604 144.896 43.3333 144.688 41.25C144.479 39.1667 144.297 37.1615 144.141 35.2344C143.984 33.3073 143.854 31.5885 143.75 30.0781C143.646 28.5156 143.568 27.3958 143.516 26.7188C143.464 25.7292 143.411 24.6354 143.359 23.4375C143.307 22.2396 143.255 21.1198 143.203 20.0781C143.203 18.9844 143.203 18.0469 143.203 17.2656C143.255 16.4323 143.359 15.9375 143.516 15.7812C143.62 15.625 143.958 15.599 144.531 15.7031C145.156 15.7552 145.807 15.9115 146.484 16.1719C147.214 16.3802 147.891 16.6667 148.516 17.0312C149.141 17.3958 149.557 17.7344 149.766 18.0469C149.922 18.3073 150.078 18.6979 150.234 19.2188C151.224 18.6979 152.161 18.2292 153.047 17.8125C153.984 17.3438 154.87 17.0052 155.703 16.7969C156.589 16.5885 157.448 16.5365 158.281 16.6406C159.115 16.6927 159.948 16.9531 160.781 17.4219ZM184.453 17.2656C184.818 17.5781 185.156 18.1771 185.469 19.0625C185.833 19.9479 186.146 21.0156 186.406 22.2656C186.667 23.5156 186.901 24.8698 187.109 26.3281C187.318 27.7865 187.5 29.2188 187.656 30.625C187.812 32.0312 187.917 33.3594 187.969 34.6094C188.073 35.8073 188.151 36.7969 188.203 37.5781C188.255 38.5156 188.281 39.5052 188.281 40.5469C188.333 41.5365 188.333 42.5 188.281 43.4375C188.281 44.3229 188.229 45.1302 188.125 45.8594C188.073 46.5885 187.969 47.1354 187.812 47.5C187.5 48.2812 186.953 48.8281 186.172 49.1406C185.443 49.401 184.609 49.5833 183.672 49.6875C183.203 49.7396 182.396 49.7656 181.25 49.7656C180.156 49.7135 178.958 49.6615 177.656 49.6094C176.406 49.5052 175.208 49.401 174.062 49.2969C172.917 49.1927 172.057 49.0885 171.484 48.9844C170.339 48.724 169.505 48.3854 168.984 47.9688C168.516 47.5521 168.047 46.9531 167.578 46.1719C167.422 45.8594 167.292 45.0781 167.188 43.8281C167.083 42.526 167.005 40.9896 166.953 39.2188C166.953 37.3958 166.979 35.4427 167.031 33.3594C167.083 31.276 167.161 29.2969 167.266 27.4219C167.422 25.5469 167.578 23.9062 167.734 22.5C167.943 21.0938 168.203 20.1562 168.516 19.6875C169.036 18.9583 169.922 18.2812 171.172 17.6562C172.474 17.0312 173.646 16.5365 174.688 16.1719C175.208 16.0156 175.885 15.9115 176.719 15.8594C177.604 15.7552 178.516 15.7552 179.453 15.8594C180.443 15.9115 181.38 16.0677 182.266 16.3281C183.151 16.5365 183.88 16.849 184.453 17.2656ZM180.078 41.4844C180.182 41.276 180.286 40.651 180.391 39.6094C180.547 38.5156 180.651 37.2135 180.703 35.7031C180.807 34.1927 180.859 32.5781 180.859 30.8594C180.911 29.1406 180.938 27.5521 180.938 26.0938C180.938 24.6354 180.885 23.4115 180.781 22.4219C180.677 21.3802 180.547 20.7812 180.391 20.625C180.13 20.4167 179.74 20.3385 179.219 20.3906C178.75 20.3906 178.255 20.4688 177.734 20.625C177.214 20.7292 176.745 20.8854 176.328 21.0938C175.911 21.25 175.625 21.4062 175.469 21.5625C174.792 22.1354 174.427 23.0729 174.375 24.375C174.375 24.7396 174.323 25.7812 174.219 27.5C174.167 29.1667 174.141 30.9896 174.141 32.9688C174.141 34.8958 174.167 36.6927 174.219 38.3594C174.323 40.026 174.505 41.0417 174.766 41.4062C175.026 41.7708 175.391 42.0573 175.859 42.2656C176.38 42.4219 176.901 42.5 177.422 42.5C177.995 42.5 178.516 42.4219 178.984 42.2656C179.505 42.0573 179.87 41.7969 180.078 41.4844Z" fill="white"/>
</svg>
