<svg width="16" height="17" viewBox="0 0 16 17" fill="none" xmlns="http://www.w3.org/2000/svg">
<path d="M8 0.413818C5.829 0.413818 5.556 0.423925 4.703 0.462331C3.85 0.502759 3.269 0.638191 2.76 0.838307C2.22609 1.04127 1.74249 1.35965 1.343 1.77117C0.936076 2.17514 0.621107 2.66385 0.42 3.20331C0.222 3.71674 0.087 4.30496 0.048 5.16405C0.01 6.02818 0 6.30309 0 8.50032C0 10.6955 0.01 10.9704 0.048 11.8326C0.088 12.6937 0.222 13.2809 0.42 13.7953C0.625 14.3269 0.898 14.7777 1.343 15.2275C1.787 15.6772 2.233 15.9541 2.759 16.1603C3.269 16.3604 3.849 16.4969 4.701 16.5363C5.555 16.5747 5.827 16.5848 8 16.5848C10.173 16.5848 10.444 16.5747 11.298 16.5363C12.149 16.4959 12.732 16.3604 13.241 16.1603C13.7746 15.9573 14.2578 15.6389 14.657 15.2275C15.102 14.7777 15.375 14.3269 15.58 13.7953C15.777 13.2809 15.912 12.6937 15.952 11.8326C15.99 10.9704 16 10.6955 16 8.49931C16 6.30309 15.99 6.02818 15.952 5.16506C15.912 4.30496 15.777 3.71674 15.58 3.20331C15.3789 2.66383 15.0639 2.17512 14.657 1.77117C14.2576 1.35949 13.774 1.0411 13.24 0.838307C12.73 0.638191 12.148 0.501748 11.297 0.462331C10.443 0.423925 10.172 0.413818 7.998 0.413818H8.001H8ZM7.283 1.87123H8.001C10.137 1.87123 10.39 1.8783 11.233 1.91772C12.013 1.95309 12.437 2.08549 12.719 2.19566C13.092 2.34221 13.359 2.51807 13.639 2.80106C13.919 3.08405 14.092 3.3529 14.237 3.73089C14.347 4.0149 14.477 4.44343 14.512 5.23176C14.551 6.08377 14.559 6.33948 14.559 8.49729C14.559 10.6551 14.551 10.9118 14.512 11.7638C14.477 12.5522 14.346 12.9797 14.237 13.2647C14.1087 13.6158 13.904 13.9332 13.638 14.1935C13.358 14.4765 13.092 14.6514 12.718 14.7979C12.438 14.9091 12.014 15.0405 11.233 15.0769C10.39 15.1153 10.137 15.1244 8.001 15.1244C5.865 15.1244 5.611 15.1153 4.768 15.0769C3.988 15.0405 3.565 14.9091 3.283 14.7979C2.9355 14.6685 2.62113 14.4619 2.363 14.1935C2.09675 13.9328 1.89172 13.6151 1.763 13.2637C1.654 12.9797 1.523 12.5512 1.488 11.7628C1.45 10.9108 1.442 10.6551 1.442 8.49527C1.442 6.33644 1.45 6.08175 1.488 5.22974C1.524 4.4414 1.654 4.01287 1.764 3.72786C1.909 3.35087 2.083 3.08102 2.363 2.79803C2.643 2.51504 2.909 2.34019 3.283 2.19364C3.565 2.08246 3.988 1.95107 4.768 1.91469C5.506 1.88032 5.792 1.87022 7.283 1.86921V1.87123ZM12.271 3.21342C12.1449 3.21342 12.0201 3.23852 11.9036 3.28728C11.7872 3.33604 11.6813 3.40751 11.5922 3.4976C11.503 3.5877 11.4323 3.69466 11.3841 3.81238C11.3358 3.9301 11.311 4.05626 11.311 4.18368C11.311 4.3111 11.3358 4.43726 11.3841 4.55498C11.4323 4.6727 11.503 4.77966 11.5922 4.86976C11.6813 4.95985 11.7872 5.03132 11.9036 5.08008C12.0201 5.12884 12.1449 5.15394 12.271 5.15394C12.5256 5.15394 12.7698 5.05172 12.9498 4.86976C13.1299 4.6878 13.231 4.44101 13.231 4.18368C13.231 3.92635 13.1299 3.67956 12.9498 3.4976C12.7698 3.31564 12.5256 3.21342 12.271 3.21342ZM8.001 4.34741C7.45607 4.33882 6.91489 4.43987 6.40898 4.6447C5.90306 4.84952 5.44251 5.15401 5.05415 5.54045C4.66579 5.92689 4.35736 6.38755 4.14684 6.89562C3.93632 7.40368 3.8279 7.949 3.8279 8.49982C3.8279 9.05064 3.93632 9.59595 4.14684 10.104C4.35736 10.6121 4.66579 11.0727 5.05415 11.4592C5.44251 11.8456 5.90306 12.1501 6.40898 12.3549C6.91489 12.5598 7.45607 12.6608 8.001 12.6522C9.07954 12.6352 10.1082 12.1903 10.865 11.4134C11.6217 10.6365 12.0459 9.59002 12.0459 8.49982C12.0459 7.40962 11.6217 6.36314 10.865 5.58626C10.1082 4.80938 9.07954 4.36442 8.001 4.34741ZM8.001 5.80381C8.70833 5.80381 9.38669 6.0878 9.88685 6.59331C10.387 7.09881 10.668 7.78442 10.668 8.49931C10.668 9.2142 10.387 9.89982 9.88685 10.4053C9.38669 10.9108 8.70833 11.1948 8.001 11.1948C7.29367 11.1948 6.61531 10.9108 6.11515 10.4053C5.61499 9.89982 5.334 9.2142 5.334 8.49931C5.334 7.78442 5.61499 7.09881 6.11515 6.59331C6.61531 6.0878 7.29367 5.80381 8.001 5.80381Z" fill="black" fill-opacity="0.65"/>
</svg>
