<svg width="18" height="19" viewBox="0 0 18 19" fill="none" xmlns="http://www.w3.org/2000/svg">
<path d="M9 0.403076C4.038 0.403076 0 4.48423 0 9.49926C0 14.5143 4.038 18.5954 9 18.5954C13.962 18.5954 18 14.5143 18 9.49926C18 4.48423 13.962 0.403076 9 0.403076ZM9 1.91911C13.1512 1.91911 16.5 5.30364 16.5 9.49926C16.5018 11.3139 15.858 13.0687 14.686 14.4435C13.514 15.8182 11.892 16.7212 10.116 16.9877V11.7096H12.252L12.5873 9.51669H10.116V8.31903C10.116 7.40941 10.4123 6.60061 11.2545 6.60061H12.6083V4.68738C12.3705 4.65478 11.8673 4.58429 10.9163 4.58429C8.93025 4.58429 7.76625 5.64399 7.76625 8.05903V9.51669H5.72475V11.7096H7.76625V16.9687C6.01481 16.6774 4.42293 15.7661 3.27502 14.3978C2.12711 13.0295 1.49797 11.2932 1.5 9.49926C1.5 5.30364 4.84875 1.91911 9 1.91911Z" fill="black" fill-opacity="0.65"/>
</svg>
