<svg width="816" height="97" viewBox="0 0 816 97" fill="none" xmlns="http://www.w3.org/2000/svg">
<path d="M42.5506 75.4C41.2173 75.4 39.9906 75.0533 38.8706 74.36C37.7506 73.72 36.764 72.52 35.9106 70.76C35.0573 68.9467 34.3906 66.4133 33.9106 63.16C33.484 59.8533 33.2706 55.56 33.2706 50.28C33.2706 49.48 33.2706 48.68 33.2706 47.88C33.2706 47.0267 33.2973 46.1733 33.3506 45.32C31.9106 48.5733 30.284 51.6933 28.4706 54.68C26.7106 57.6667 24.844 60.3067 22.8706 62.6C20.9506 64.8933 19.004 66.7067 17.0306 68.04C15.1106 69.3733 13.2706 70.04 11.5106 70.04C8.36396 70.04 5.80396 68.84 3.83063 66.44C1.91063 64.04 0.950625 60.0933 0.950625 54.6C0.950625 51.3467 1.19063 47.88 1.67063 44.2C2.20396 40.52 2.89729 36.92 3.75063 33.4C4.60396 29.88 5.51063 26.68 6.47063 23.8C7.48396 20.92 8.49729 18.6267 9.51063 16.92C10.524 15.2133 11.4306 14.36 12.2306 14.36C13.564 14.36 14.5506 14.7067 15.1906 15.4C15.884 16.04 16.2306 16.8933 16.2306 17.96C16.2306 18.7067 15.9373 20.12 15.3506 22.2C14.764 24.28 14.044 26.7867 13.1906 29.72C12.3373 32.6 11.4573 35.6933 10.5506 39C9.69729 42.3067 8.97729 45.5867 8.39063 48.84C7.80396 52.04 7.51063 54.9733 7.51063 57.64C7.51063 60.36 8.60396 61.72 10.7906 61.72C13.3506 61.72 15.7506 60.6267 17.9906 58.44C20.2306 56.2 22.3106 53.24 24.2306 49.56C26.1506 45.88 27.9106 41.7733 29.5106 37.24C31.164 32.6533 32.6573 27.9867 33.9906 23.24C33.9373 22.76 33.9106 22.2267 33.9106 21.64C33.9106 21.0533 33.9106 20.3067 33.9106 19.4C33.9106 18.2267 34.2306 16.9733 34.8706 15.64C35.564 14.2533 36.3906 13.0533 37.3506 12.04C38.3106 11.0267 39.2706 10.52 40.2306 10.52C42.044 10.52 42.9506 11.8 42.9506 14.36C42.9506 15 42.7906 16.04 42.4706 17.48C42.204 18.92 41.8573 21 41.4306 23.72C41.0573 26.44 40.7106 30.0133 40.3906 34.44C40.124 38.8667 39.9906 44.4133 39.9906 51.08C39.9906 56.7333 40.284 60.7067 40.8706 63C41.5106 65.24 42.444 66.36 43.6706 66.36C45.2706 66.36 46.8173 65.4267 48.3106 63.56C49.8573 61.6933 51.2973 59.08 52.6306 55.72C54.0173 52.36 55.244 48.44 56.3106 43.96C57.4306 39.4267 58.3906 34.52 59.1906 29.24C60.044 23.9067 60.7106 18.3867 61.1906 12.68C61.4573 10.3333 61.964 8.65333 62.7106 7.64C63.4573 6.62666 64.2306 6.12 65.0306 6.12C65.5106 6.12 66.044 6.25333 66.6306 6.52C67.2706 6.73333 67.804 7.21333 68.2306 7.96C68.6573 8.70666 68.8706 9.88 68.8706 11.48C68.8706 19.7467 68.2573 27.2667 67.0306 34.04C65.8573 40.76 64.284 46.7067 62.3106 51.88C60.3373 57 58.1773 61.32 55.8306 64.84C53.484 68.3067 51.1373 70.9467 48.7906 72.76C46.4973 74.52 44.4173 75.4 42.5506 75.4ZM111.948 38.52C111.948 40.2267 111.414 41.9067 110.348 43.56C109.281 45.16 107.868 46.7067 106.108 48.2C104.348 49.64 102.401 51 100.268 52.28C98.1342 53.56 96.0008 54.68 93.8675 55.64C91.7342 56.6 89.7875 57.3733 88.0275 57.96C87.6008 60.04 87.3875 61.88 87.3875 63.48C87.3875 64.4933 87.6275 65.2133 88.1075 65.64C88.5875 66.0667 89.3342 66.28 90.3475 66.28C92.5875 66.28 94.9608 65.88 97.4675 65.08C99.9742 64.28 102.534 63.24 105.148 61.96C107.761 60.68 110.268 59.32 112.668 57.88C115.068 56.44 117.254 55.08 119.227 53.8C121.254 52.52 122.934 51.48 124.268 50.68C125.601 49.88 126.481 49.48 126.908 49.48C127.548 49.48 128.028 49.6933 128.348 50.12C128.721 50.4933 128.908 50.9467 128.908 51.48C128.908 51.9067 128.241 52.7333 126.908 53.96C125.628 55.1867 123.894 56.6267 121.708 58.28C119.521 59.88 117.068 61.5333 114.348 63.24C111.628 64.9467 108.801 66.5467 105.868 68.04C102.988 69.5333 100.188 70.7333 97.4675 71.64C94.8008 72.5467 92.4008 73 90.2675 73C87.4942 73 85.3342 71.96 83.7875 69.88C82.2408 67.8 81.4675 64.5733 81.4675 60.2C81.4675 57.2667 81.8408 54.3067 82.5875 51.32C83.3875 48.3333 84.4542 45.48 85.7875 42.76C87.1742 39.9867 88.6942 37.5333 90.3475 35.4C92.0542 33.2133 93.8408 31.5067 95.7075 30.28C97.5742 29 99.3875 28.36 101.148 28.36C104.508 28.36 107.148 29.2933 109.068 31.16C110.988 33.0267 111.948 35.48 111.948 38.52ZM89.7075 51.8C91.3608 50.7867 93.0675 49.72 94.8275 48.6C96.5875 47.48 98.2142 46.3333 99.7075 45.16C101.201 43.9867 102.401 42.76 103.308 41.48C104.268 40.1467 104.748 38.7867 104.748 37.4C104.748 35.4267 103.681 34.44 101.548 34.44C100.214 34.44 98.8008 35.2933 97.3075 37C95.8675 38.6533 94.4808 40.8133 93.1475 43.48C91.8142 46.1467 90.6675 48.92 89.7075 51.8ZM138.294 76.2C134.188 76.2 130.961 74.8667 128.614 72.2C126.321 69.48 125.174 65.6933 125.174 60.84C125.174 57.8533 125.574 54.36 126.374 50.36C127.228 46.3067 128.294 42.04 129.574 37.56C130.908 33.0267 132.348 28.5467 133.894 24.12C135.441 19.6933 136.934 15.5867 138.374 11.8C139.868 7.96 141.174 4.76 142.294 2.2C142.934 0.759995 143.841 0.0399952 145.014 0.0399952C146.614 0.0399952 147.414 1.02666 147.414 3C147.414 3.64 147.121 4.94666 146.534 6.92C145.948 8.89333 145.174 11.3467 144.214 14.28C143.254 17.16 142.214 20.36 141.094 23.88C139.974 27.4 138.828 31.0267 137.654 34.76C136.534 38.44 135.494 42.0933 134.534 45.72C133.574 49.2933 132.801 52.6533 132.214 55.8C131.628 58.9467 131.334 61.64 131.334 63.88C131.334 65.32 131.708 66.4667 132.454 67.32C133.254 68.12 134.321 68.52 135.654 68.52C138.108 68.52 140.561 68.04 143.014 67.08C145.521 66.0667 147.921 64.84 150.214 63.4C152.508 61.9067 154.588 60.44 156.454 59C158.374 57.5067 160.001 56.28 161.334 55.32C162.668 54.3067 163.601 53.8 164.134 53.8C165.308 53.8 165.894 54.44 165.894 55.72C165.894 56.1467 165.468 56.9467 164.614 58.12C163.761 59.24 162.614 60.5733 161.174 62.12C159.734 63.6667 158.054 65.2667 156.134 66.92C154.268 68.52 152.294 70.04 150.214 71.48C148.188 72.8667 146.134 73.9867 144.054 74.84C142.028 75.7467 140.108 76.2 138.294 76.2ZM175.655 74.12C173.042 74.12 170.775 73.5333 168.855 72.36C166.988 71.1333 165.548 69.56 164.535 67.64C163.522 65.72 163.015 63.7467 163.015 61.72C163.015 57.4533 163.762 53.56 165.255 50.04C166.748 46.4667 168.615 43.32 170.855 40.6C173.148 37.8267 175.495 35.48 177.895 33.56C180.348 31.64 182.562 30.2 184.535 29.24C186.562 28.2267 188.002 27.72 188.855 27.72C190.562 27.72 191.415 28.5733 191.415 30.28C191.415 31.08 190.882 32.0133 189.815 33.08C188.748 34.0933 187.388 35.2933 185.735 36.68C184.082 38.0667 182.322 39.64 180.455 41.4C178.588 43.1067 176.828 45.0533 175.175 47.24C173.522 49.3733 172.162 51.7733 171.095 54.44C170.028 57.0533 169.495 59.9333 169.495 63.08C169.495 66.28 170.802 67.88 173.415 67.88C175.815 67.88 178.268 67.4267 180.775 66.52C183.335 65.6133 185.842 64.44 188.295 63C190.802 61.5067 193.202 59.96 195.495 58.36C197.788 56.76 199.868 55.24 201.735 53.8C203.602 52.3067 205.175 51.1067 206.455 50.2C207.735 49.2933 208.642 48.84 209.175 48.84C210.242 48.84 210.775 49.4267 210.775 50.6C210.775 51.5067 210.162 52.7067 208.935 54.2C207.708 55.6933 206.055 57.32 203.975 59.08C201.895 60.84 199.575 62.6267 197.015 64.44C194.455 66.2 191.868 67.8267 189.255 69.32C186.642 70.76 184.135 71.9333 181.735 72.84C179.388 73.6933 177.362 74.12 175.655 74.12ZM217.564 73.8C214.418 73.8 211.938 72.6 210.124 70.2C208.311 67.8 207.404 64.68 207.404 60.84C207.404 59.4533 207.591 57.9867 207.964 56.44C208.391 54.84 208.924 53.4 209.564 52.12C209.191 51.7467 208.898 51.24 208.684 50.6C208.471 49.9067 208.364 49.0533 208.364 48.04C208.364 44.8933 208.898 42.0133 209.964 39.4C211.031 36.7867 212.444 34.52 214.204 32.6C215.964 30.6267 217.911 29.1067 220.044 28.04C222.231 26.9733 224.444 26.44 226.684 26.44C230.364 26.44 233.351 27.7733 235.644 30.44C237.938 33.0533 239.084 37.0533 239.084 42.44C239.084 45.2667 238.658 48.1467 237.804 51.08C237.004 54.0133 235.884 56.84 234.444 59.56C233.058 62.28 231.431 64.7067 229.564 66.84C227.751 68.9733 225.804 70.68 223.724 71.96C221.698 73.1867 219.644 73.8 217.564 73.8ZM214.844 49.4C215.164 49.8267 215.324 50.3867 215.324 51.08C215.324 51.88 215.164 52.68 214.844 53.48C214.578 54.28 214.284 55.3733 213.964 56.76C213.644 58.1467 213.484 60.12 213.484 62.68C213.484 65.24 214.498 66.52 216.524 66.52C218.764 66.52 220.844 65.64 222.764 63.88C224.684 62.0667 226.391 59.7467 227.884 56.92C229.378 54.0933 230.524 51.08 231.324 47.88C232.178 44.6267 232.604 41.56 232.604 38.68C232.604 36.8133 232.258 35.5067 231.564 34.76C230.871 33.96 229.618 33.56 227.804 33.56C225.938 33.56 223.991 34.2 221.964 35.48C219.991 36.7067 218.338 38.3867 217.004 40.52C215.671 42.6533 215.004 45.0533 215.004 47.72C215.004 48.3067 214.951 48.8667 214.844 49.4ZM310.768 70.6C310.715 71.4533 310.368 72.1467 309.728 72.68C309.088 73.2133 308.341 73.48 307.488 73.48C306.528 73.48 305.728 73.16 305.088 72.52C304.448 71.88 304.128 70.8933 304.128 69.56C304.128 66.0933 304.288 62.3333 304.608 58.28C304.928 54.1733 305.328 50.12 305.808 46.12C306.288 42.0667 306.768 38.3333 307.248 34.92C305.488 37.4267 303.568 40.2 301.488 43.24C299.461 46.28 297.381 49.2933 295.248 52.28C293.115 55.2667 291.035 58.0133 289.008 60.52C286.981 62.9733 285.141 64.9733 283.488 66.52C281.835 68.0133 280.475 68.76 279.408 68.76C277.435 68.76 275.728 67.9867 274.288 66.44C272.848 64.84 272.128 62.84 272.128 60.44C272.128 59.48 272.235 58.1733 272.448 56.52C272.661 54.8133 272.901 53.0267 273.168 51.16C273.435 49.2933 273.675 47.56 273.888 45.96C274.101 44.3067 274.208 43.08 274.208 42.28C274.208 41.5333 274.128 40.8933 273.968 40.36C273.861 39.7733 273.595 39.48 273.168 39.48C272.528 39.48 271.648 40.2 270.528 41.64C269.408 43.0267 268.155 44.8133 266.768 47C265.435 49.1867 264.048 51.5067 262.608 53.96C261.221 56.4133 259.915 58.7333 258.688 60.92C257.461 63.0533 256.421 64.7333 255.568 65.96C254.875 67.1333 254.235 67.9867 253.648 68.52C253.061 69.0533 252.341 69.32 251.488 69.32C250.475 69.32 249.541 68.7867 248.688 67.72C247.888 66.6533 247.488 65.3467 247.488 63.8C247.488 62.8933 247.648 61.48 247.968 59.56C248.288 57.5867 248.688 55.4267 249.168 53.08C249.701 50.7333 250.208 48.44 250.688 46.2C251.221 43.9067 251.675 41.96 252.048 40.36C252.475 38.5467 253.008 37.32 253.648 36.68C254.288 36.04 254.981 35.72 255.728 35.72C256.741 35.72 257.541 36.0933 258.128 36.84C258.768 37.5333 259.088 38.6267 259.088 40.12C259.088 40.3867 258.928 41.1067 258.608 42.28C258.288 43.4 257.888 44.7867 257.408 46.44C256.981 48.04 256.501 49.72 255.968 51.48C255.488 53.24 255.088 54.8667 254.768 56.36C255.941 54.3867 257.168 52.2533 258.448 49.96C259.781 47.6667 261.115 45.4 262.448 43.16C263.781 40.8667 265.115 38.7867 266.448 36.92C267.781 35 269.088 33.48 270.368 32.36C271.648 31.24 272.875 30.68 274.048 30.68C275.435 30.68 276.715 31.1067 277.888 31.96C279.115 32.8133 280.101 33.96 280.848 35.4C281.595 36.84 281.968 38.44 281.968 40.2C281.968 41.4267 281.755 43.16 281.328 45.4C280.901 47.5867 280.448 49.96 279.968 52.52C279.541 55.08 279.275 57.5067 279.168 59.8C279.168 60.3333 279.328 60.6 279.648 60.6C279.915 60.6 280.235 60.4133 280.608 60.04C282.155 58.3333 283.861 56.28 285.728 53.88C287.595 51.4267 289.488 48.84 291.408 46.12C293.381 43.4 295.328 40.7333 297.248 38.12C299.168 35.4533 300.955 33.0533 302.608 30.92C304.315 28.7333 305.808 27 307.088 25.72C308.421 24.44 309.461 23.8 310.208 23.8C311.808 23.8 313.035 24.2533 313.888 25.16C314.741 26.0667 315.168 27.5867 315.168 29.72C315.168 31.4267 315.035 33.64 314.768 36.36C314.555 39.08 314.261 42.04 313.888 45.24C313.568 48.44 313.195 51.6667 312.768 54.92C312.395 58.12 312.021 61.1067 311.648 63.88C311.275 66.6 310.981 68.84 310.768 70.6ZM358.823 38.52C358.823 40.2267 358.289 41.9067 357.223 43.56C356.156 45.16 354.743 46.7067 352.983 48.2C351.223 49.64 349.276 51 347.143 52.28C345.009 53.56 342.876 54.68 340.743 55.64C338.609 56.6 336.663 57.3733 334.903 57.96C334.476 60.04 334.263 61.88 334.263 63.48C334.263 64.4933 334.503 65.2133 334.983 65.64C335.463 66.0667 336.209 66.28 337.223 66.28C339.463 66.28 341.836 65.88 344.343 65.08C346.849 64.28 349.409 63.24 352.023 61.96C354.636 60.68 357.143 59.32 359.543 57.88C361.943 56.44 364.129 55.08 366.102 53.8C368.129 52.52 369.809 51.48 371.143 50.68C372.476 49.88 373.356 49.48 373.783 49.48C374.423 49.48 374.903 49.6933 375.223 50.12C375.596 50.4933 375.783 50.9467 375.783 51.48C375.783 51.9067 375.116 52.7333 373.783 53.96C372.503 55.1867 370.769 56.6267 368.583 58.28C366.396 59.88 363.943 61.5333 361.223 63.24C358.503 64.9467 355.676 66.5467 352.743 68.04C349.863 69.5333 347.063 70.7333 344.343 71.64C341.676 72.5467 339.276 73 337.143 73C334.369 73 332.209 71.96 330.663 69.88C329.116 67.8 328.343 64.5733 328.343 60.2C328.343 57.2667 328.716 54.3067 329.463 51.32C330.263 48.3333 331.329 45.48 332.663 42.76C334.049 39.9867 335.569 37.5333 337.223 35.4C338.929 33.2133 340.716 31.5067 342.582 30.28C344.449 29 346.263 28.36 348.023 28.36C351.383 28.36 354.023 29.2933 355.943 31.16C357.863 33.0267 358.823 35.48 358.823 38.52ZM336.583 51.8C338.236 50.7867 339.943 49.72 341.703 48.6C343.463 47.48 345.089 46.3333 346.583 45.16C348.076 43.9867 349.276 42.76 350.183 41.48C351.143 40.1467 351.623 38.7867 351.623 37.4C351.623 35.4267 350.556 34.44 348.423 34.44C347.089 34.44 345.676 35.2933 344.183 37C342.743 38.6533 341.356 40.8133 340.023 43.48C338.689 46.1467 337.543 48.92 336.583 51.8ZM399.265 47.4C397.825 47.2933 397.158 46.36 397.265 44.6C397.318 44.1733 397.612 43.6667 398.145 43.08C398.678 42.44 399.292 42.0933 399.985 42.04C401.638 41.88 403.665 41.64 406.065 41.32C408.518 40.9467 411.212 40.52 414.145 40.04C414.678 37.4267 415.318 34.68 416.065 31.8C416.812 28.92 417.638 26.12 418.545 23.4C419.452 20.6267 420.412 18.12 421.425 15.88C422.438 13.64 423.505 11.88 424.625 10.6C425.212 10.0133 425.745 9.61333 426.225 9.4C426.705 9.13333 427.132 9 427.505 9C428.252 9 428.838 9.32 429.265 9.96C429.745 10.6 429.985 11.32 429.985 12.12C429.985 12.5467 429.905 12.9733 429.745 13.4C428.678 16.3867 427.532 20.0667 426.305 24.44C425.078 28.8133 423.772 33.5867 422.385 38.76C427.292 37.96 432.198 37.1067 437.105 36.2C442.012 35.2933 446.225 34.4667 449.745 33.72C450.758 33.2933 451.532 33.3733 452.065 33.96C452.652 34.5467 452.945 35.1333 452.945 35.72C452.945 36.4667 452.732 37.0267 452.305 37.4C451.932 37.7733 451.532 38.0933 451.105 38.36L451.025 38.44C449.958 38.8667 448.358 39.3733 446.225 39.96C444.092 40.4933 441.638 41.08 438.865 41.72C436.092 42.3067 433.132 42.8933 429.985 43.48C426.892 44.0667 423.825 44.6 420.785 45.08C419.558 49.7733 418.305 54.6 417.025 59.56C415.798 64.4667 414.572 69.2933 413.345 74.04C412.812 75.96 412.198 77.16 411.505 77.64C410.865 78.1733 410.172 78.44 409.425 78.44C408.572 78.44 407.825 78.12 407.185 77.48C406.598 76.84 406.518 75.5333 406.945 73.56L412.785 46.28C409.585 46.76 406.758 47.1067 404.305 47.32C401.905 47.5333 400.225 47.56 399.265 47.4ZM454.908 73.8C451.761 73.8 449.281 72.6 447.468 70.2C445.655 67.8 444.748 64.68 444.748 60.84C444.748 59.4533 444.935 57.9867 445.308 56.44C445.735 54.84 446.268 53.4 446.908 52.12C446.535 51.7467 446.241 51.24 446.028 50.6C445.815 49.9067 445.708 49.0533 445.708 48.04C445.708 44.8933 446.241 42.0133 447.308 39.4C448.375 36.7867 449.788 34.52 451.548 32.6C453.308 30.6267 455.255 29.1067 457.388 28.04C459.575 26.9733 461.788 26.44 464.028 26.44C467.708 26.44 470.695 27.7733 472.988 30.44C475.281 33.0533 476.428 37.0533 476.428 42.44C476.428 45.2667 476.001 48.1467 475.148 51.08C474.348 54.0133 473.228 56.84 471.788 59.56C470.401 62.28 468.775 64.7067 466.908 66.84C465.095 68.9733 463.148 70.68 461.068 71.96C459.041 73.1867 456.988 73.8 454.908 73.8ZM452.188 49.4C452.508 49.8267 452.668 50.3867 452.668 51.08C452.668 51.88 452.508 52.68 452.188 53.48C451.921 54.28 451.628 55.3733 451.308 56.76C450.988 58.1467 450.828 60.12 450.828 62.68C450.828 65.24 451.841 66.52 453.868 66.52C456.108 66.52 458.188 65.64 460.108 63.88C462.028 62.0667 463.735 59.7467 465.228 56.92C466.721 54.0933 467.868 51.08 468.668 47.88C469.521 44.6267 469.948 41.56 469.948 38.68C469.948 36.8133 469.601 35.5067 468.908 34.76C468.215 33.96 466.961 33.56 465.148 33.56C463.281 33.56 461.335 34.2 459.308 35.48C457.335 36.7067 455.681 38.3867 454.348 40.52C453.015 42.6533 452.348 45.0533 452.348 47.72C452.348 48.3067 452.295 48.8667 452.188 49.4ZM564.162 77.8C562.989 77.8 562.002 77.3467 561.202 76.44C560.455 75.5333 560.082 74.04 560.082 71.96C560.082 71.2667 560.162 70.52 560.322 69.72C560.482 68.8667 560.775 68.0133 561.202 67.16C558.535 60.5467 556.295 54.12 554.482 47.88C552.669 41.64 551.122 35.1067 549.842 28.28C548.135 31.8 546.509 35.4533 544.962 39.24C543.469 42.9733 542.055 46.6267 540.722 50.2C539.389 53.7733 538.189 57.1067 537.122 60.2C536.055 63.2933 535.122 65.96 534.322 68.2C533.469 70.8667 532.615 72.6533 531.762 73.56C530.909 74.52 530.029 75 529.122 75C527.895 75 526.962 74.7067 526.322 74.12C525.735 73.5333 525.442 72.4933 525.442 71C525.442 69.88 525.735 68.1467 526.322 65.8C526.909 63.4533 527.709 60.7333 528.722 57.64C529.789 54.5467 530.989 51.2933 532.322 47.88C533.655 44.4667 535.069 41.1333 536.562 37.88C538.109 34.6267 539.655 31.6933 541.202 29.08C542.749 26.4133 544.215 24.3067 545.602 22.76C547.042 21.16 548.349 20.36 549.522 20.36C550.749 20.36 551.789 20.6 552.642 21.08C553.549 21.56 554.535 22.8133 555.602 24.84C556.295 26.2267 557.095 28.2533 558.002 30.92C558.909 33.5333 559.815 36.4933 560.722 39.8C561.629 43.0533 562.509 46.4133 563.362 49.88C564.215 53.2933 564.962 56.4667 565.602 59.4C567.735 49.5333 569.602 40.8933 571.202 33.48C572.802 26.0133 574.029 20.1733 574.882 15.96C575.789 11.7467 576.269 9.53333 576.322 9.31999C576.642 7.93333 576.989 7.08 577.362 6.75999C577.735 6.44 578.269 6.28 578.962 6.28C579.922 6.28 580.855 6.68 581.762 7.47999C582.722 8.22666 583.202 9.26666 583.202 10.6C583.202 11.24 583.042 12.7067 582.722 15C582.455 17.2933 582.029 20.1733 581.442 23.64C580.909 27.0533 580.215 30.8667 579.362 35.08C578.509 39.24 577.522 43.5867 576.402 48.12C575.282 52.6 574.029 57.0533 572.642 61.48C571.309 65.8533 569.842 69.9867 568.242 73.88C567.655 75.3733 566.962 76.3867 566.162 76.92C565.415 77.5067 564.749 77.8 564.162 77.8ZM598.466 75.08C596.439 75.08 594.759 74.1467 593.426 72.28C592.146 70.36 591.506 67.88 591.506 64.84C591.506 62.0133 592.199 59.2133 593.586 56.44C595.026 53.6667 596.919 51 599.266 48.44C601.612 45.88 604.172 43.5333 606.946 41.4C609.719 39.2133 612.492 37.32 615.266 35.72C618.092 34.12 620.679 32.8667 623.026 31.96C625.372 31.0533 627.239 30.6 628.626 30.6C629.372 30.6 629.986 30.76 630.466 31.08C630.946 31.3467 631.186 31.8533 631.186 32.6C631.186 33.08 630.999 33.5333 630.626 33.96C630.679 33.96 630.732 33.96 630.786 33.96C631.959 33.96 632.546 34.6533 632.546 36.04C632.546 36.52 632.359 37.5067 631.986 39C631.612 40.44 631.186 42.2533 630.706 44.44C630.226 46.6267 629.799 49.0533 629.426 51.72C629.052 54.3333 628.866 57 628.866 59.72C628.866 62.0133 629.746 63.16 631.506 63.16C633.479 63.16 635.479 62.7067 637.506 61.8C639.532 60.8933 641.506 59.8 643.426 58.52C645.346 57.1867 647.106 55.88 648.706 54.6C650.306 53.2667 651.666 52.1467 652.786 51.24C653.906 50.3333 654.706 49.88 655.186 49.88C655.612 49.88 655.986 50.0133 656.306 50.28C656.626 50.5467 656.786 50.9733 656.786 51.56C656.786 52.0933 656.252 53.0533 655.186 54.44C654.119 55.8267 652.706 57.4 650.946 59.16C649.186 60.92 647.212 62.6267 645.026 64.28C642.839 65.9333 640.599 67.2933 638.306 68.36C636.012 69.4267 633.826 69.96 631.746 69.96C630.146 69.96 628.679 69.48 627.346 68.52C626.066 67.5067 625.026 65.8 624.226 63.4C623.479 61 623.106 57.6933 623.106 53.48V51.48C620.492 55.8 617.746 59.7467 614.866 63.32C612.039 66.8933 609.212 69.7467 606.386 71.88C603.612 74.0133 600.972 75.08 598.466 75.08ZM627.106 36.36C626.839 36.4667 626.466 36.6267 625.986 36.84C623.532 37.96 620.972 39.3467 618.306 41C615.692 42.6533 613.132 44.4933 610.626 46.52C608.172 48.5467 605.959 50.6533 603.986 52.84C602.012 55.0267 600.439 57.24 599.266 59.48C598.092 61.72 597.506 63.9067 597.506 66.04C597.506 66.7333 597.639 67.2667 597.906 67.64C598.226 68.0133 598.759 68.2 599.506 68.2C600.572 68.2 601.959 67.5333 603.666 66.2C605.372 64.8133 607.239 63 609.266 60.76C611.346 58.52 613.426 56.04 615.506 53.32C617.586 50.6 619.559 47.8533 621.426 45.08C623.346 42.3067 624.999 39.7467 626.386 37.4C626.599 37.0267 626.839 36.68 627.106 36.36ZM652.189 96.76C651.282 96.76 650.562 96.44 650.029 95.8C649.549 95.16 649.309 93.9333 649.309 92.12C649.309 89.5067 649.495 86.4667 649.869 83C650.242 79.5333 650.749 75.8533 651.389 71.96C652.082 68.0667 652.829 64.1733 653.629 60.28C654.482 56.3867 655.362 52.68 656.269 49.16C657.229 45.64 658.162 42.52 659.069 39.8C659.975 37.0267 660.802 34.84 661.549 33.24C662.349 31.64 663.042 30.84 663.629 30.84C664.642 30.84 665.442 31.1333 666.029 31.72C666.669 32.3067 666.989 33.1867 666.989 34.36C666.989 35.8533 666.535 38.28 665.629 41.64C664.722 44.9467 663.549 49.2667 662.109 54.6C663.442 52.1467 664.882 49.5867 666.429 46.92C667.975 44.2533 669.602 41.6667 671.309 39.16C673.015 36.6 674.722 34.3067 676.429 32.28C678.189 30.2533 679.895 28.6267 681.549 27.4C683.202 26.1733 684.802 25.56 686.349 25.56C688.002 25.56 689.469 26.0933 690.749 27.16C692.029 28.1733 693.015 29.56 693.709 31.32C694.455 33.0267 694.829 34.9467 694.829 37.08C694.829 41.5067 694.082 45.8 692.589 49.96C691.095 54.0667 689.015 57.7733 686.349 61.08C683.735 64.3333 680.642 66.92 677.069 68.84C673.549 70.76 669.735 71.72 665.629 71.72C664.082 71.72 662.695 71.64 661.469 71.48C660.242 71.32 659.175 71.1333 658.269 70.92C657.629 74.44 657.015 78.0667 656.429 81.8C655.842 85.5333 655.255 89.5067 654.669 93.72C654.509 94.84 654.242 95.6133 653.869 96.04C653.495 96.52 652.935 96.76 652.189 96.76ZM687.789 31.64C686.669 31.64 685.335 32.28 683.789 33.56C682.295 34.84 680.669 36.5467 678.909 38.68C677.202 40.76 675.469 43.08 673.709 45.64C671.949 48.1467 670.242 50.7067 668.589 53.32C666.935 55.9333 665.415 58.36 664.029 60.6C662.695 62.84 661.602 64.7067 660.749 66.2C664.909 66.0933 668.562 65.2667 671.709 63.72C674.855 62.12 677.549 60.0933 679.789 57.64C682.029 55.1333 683.842 52.44 685.229 49.56C686.669 46.6267 687.709 43.8 688.349 41.08C688.989 38.3067 689.309 35.9067 689.309 33.88C689.309 32.3867 688.802 31.64 687.789 31.64ZM718.06 76.2C713.953 76.2 710.727 74.8667 708.38 72.2C706.087 69.48 704.94 65.6933 704.94 60.84C704.94 57.8533 705.34 54.36 706.14 50.36C706.993 46.3067 708.06 42.04 709.34 37.56C710.673 33.0267 712.113 28.5467 713.66 24.12C715.207 19.6933 716.7 15.5867 718.14 11.8C719.633 7.96 720.94 4.76 722.06 2.2C722.7 0.759995 723.607 0.0399952 724.78 0.0399952C726.38 0.0399952 727.18 1.02666 727.18 3C727.18 3.64 726.887 4.94666 726.3 6.92C725.713 8.89333 724.94 11.3467 723.98 14.28C723.02 17.16 721.98 20.36 720.86 23.88C719.74 27.4 718.593 31.0267 717.42 34.76C716.3 38.44 715.26 42.0933 714.3 45.72C713.34 49.2933 712.567 52.6533 711.98 55.8C711.393 58.9467 711.1 61.64 711.1 63.88C711.1 65.32 711.473 66.4667 712.22 67.32C713.02 68.12 714.087 68.52 715.42 68.52C717.873 68.52 720.327 68.04 722.78 67.08C725.287 66.0667 727.687 64.84 729.98 63.4C732.273 61.9067 734.353 60.44 736.22 59C738.14 57.5067 739.767 56.28 741.1 55.32C742.433 54.3067 743.367 53.8 743.9 53.8C745.073 53.8 745.66 54.44 745.66 55.72C745.66 56.1467 745.233 56.9467 744.38 58.12C743.527 59.24 742.38 60.5733 740.94 62.12C739.5 63.6667 737.82 65.2667 735.9 66.92C734.033 68.52 732.06 70.04 729.98 71.48C727.953 72.8667 725.9 73.9867 723.82 74.84C721.793 75.7467 719.873 76.2 718.06 76.2ZM773.901 38.52C773.901 40.2267 773.367 41.9067 772.301 43.56C771.234 45.16 769.821 46.7067 768.061 48.2C766.301 49.64 764.354 51 762.221 52.28C760.087 53.56 757.954 54.68 755.821 55.64C753.687 56.6 751.741 57.3733 749.981 57.96C749.554 60.04 749.341 61.88 749.341 63.48C749.341 64.4933 749.581 65.2133 750.061 65.64C750.541 66.0667 751.287 66.28 752.301 66.28C754.541 66.28 756.914 65.88 759.421 65.08C761.927 64.28 764.487 63.24 767.101 61.96C769.714 60.68 772.221 59.32 774.621 57.88C777.021 56.44 779.207 55.08 781.181 53.8C783.207 52.52 784.887 51.48 786.221 50.68C787.554 49.88 788.434 49.48 788.861 49.48C789.501 49.48 789.981 49.6933 790.301 50.12C790.674 50.4933 790.861 50.9467 790.861 51.48C790.861 51.9067 790.194 52.7333 788.861 53.96C787.581 55.1867 785.847 56.6267 783.661 58.28C781.474 59.88 779.021 61.5333 776.301 63.24C773.581 64.9467 770.754 66.5467 767.821 68.04C764.941 69.5333 762.141 70.7333 759.421 71.64C756.754 72.5467 754.354 73 752.221 73C749.447 73 747.287 71.96 745.741 69.88C744.194 67.8 743.421 64.5733 743.421 60.2C743.421 57.2667 743.794 54.3067 744.541 51.32C745.341 48.3333 746.407 45.48 747.741 42.76C749.127 39.9867 750.647 37.5333 752.301 35.4C754.007 33.2133 755.794 31.5067 757.661 30.28C759.527 29 761.341 28.36 763.101 28.36C766.461 28.36 769.101 29.2933 771.021 31.16C772.941 33.0267 773.901 35.48 773.901 38.52ZM751.661 51.8C753.314 50.7867 755.021 49.72 756.781 48.6C758.541 47.48 760.167 46.3333 761.661 45.16C763.154 43.9867 764.354 42.76 765.261 41.48C766.221 40.1467 766.701 38.7867 766.701 37.4C766.701 35.4267 765.634 34.44 763.501 34.44C762.167 34.44 760.754 35.2933 759.261 37C757.821 38.6533 756.434 40.8133 755.101 43.48C753.767 46.1467 752.621 48.92 751.661 51.8ZM796.226 74.76C795.052 74.76 794.146 74.4133 793.506 73.72C792.919 73.08 792.626 72.3333 792.626 71.48C792.626 70.7333 792.946 70.04 793.586 69.4C794.279 68.7067 795.212 68.0933 796.386 67.56C798.519 66.44 800.519 65.32 802.386 64.2C804.306 63.08 805.852 61.88 807.026 60.6C808.199 59.32 808.786 57.96 808.786 56.52C808.786 55.2933 808.386 54.36 807.586 53.72C806.786 53.0267 805.692 52.68 804.306 52.68C803.506 52.68 802.386 52.84 800.946 53.16C799.506 53.4267 797.932 53.7467 796.226 54.12C794.572 54.44 792.946 54.76 791.346 55.08C789.746 55.3467 788.386 55.48 787.266 55.48C785.239 55.48 783.719 55 782.706 54.04C781.692 53.0267 781.186 51.6667 781.186 49.96C781.186 49.1067 781.692 47.8267 782.706 46.12C783.719 44.4133 785.052 42.52 786.706 40.44C788.412 38.3067 790.279 36.1733 792.306 34.04C794.332 31.9067 796.386 29.9333 798.466 28.12C800.599 26.3067 802.572 24.84 804.386 23.72C806.252 22.6 807.799 22.04 809.026 22.04C810.252 22.04 811.186 22.44 811.826 23.24C812.466 24.04 812.786 25.0533 812.786 26.28C812.786 27.24 812.626 28.0667 812.306 28.76C811.986 29.4 811.319 29.9067 810.306 30.28C809.346 30.6533 807.852 30.8667 805.826 30.92C803.746 32.5733 801.532 34.4667 799.186 36.6C796.892 38.68 794.786 40.84 792.866 43.08C790.999 45.2667 789.639 47.3733 788.786 49.4C790.546 48.8133 792.679 48.3067 795.186 47.88C797.746 47.4 800.332 47.16 802.946 47.16C807.052 47.16 810.092 48.0933 812.066 49.96C814.092 51.7733 815.106 54.1733 815.106 57.16C815.106 59.08 814.492 61.08 813.266 63.16C812.092 65.1867 810.546 67.08 808.626 68.84C806.706 70.6 804.652 72.0133 802.466 73.08C800.279 74.2 798.199 74.76 796.226 74.76Z" fill="#F0F0F0"/>
</svg>
